<?xml version="1.0" standalone="no"?>
<!DOCTYPE svg PUBLIC "-//W3C//DTD SVG 20010904//EN"
 "http://www.w3.org/TR/2001/REC-SVG-20010904/DTD/svg10.dtd">
<svg version="1.0" xmlns="http://www.w3.org/2000/svg"
 width="737.000000pt" height="1106.000000pt" viewBox="0 0 737.000000 1106.000000"
 preserveAspectRatio="xMidYMid meet">

<g transform="translate(0.000000,1106.000000) scale(0.100000,-0.100000)"
fill="#000000" stroke="none">
<path d="M0 10180 c0 -580 3 -880 10 -880 6 0 10 17 10 38 1 44 19 72 47 72
11 0 37 7 56 15 20 8 55 15 77 15 22 0 40 2 40 5 0 18 -60 67 -92 75 -21 6
-38 15 -38 20 0 15 36 30 73 30 60 0 99 12 104 32 7 23 33 24 33 1 1 -17 1
-17 11 0 13 23 46 22 59 -3 6 -10 12 -47 15 -82 3 -38 2 -55 -3 -44 -7 17 -11
13 -26 -23 -16 -42 -17 -43 -36 -26 -19 18 -20 17 -20 -13 0 -29 -3 -32 -30
-32 -27 0 -30 -3 -30 -32 1 -18 5 -53 9 -77 6 -29 5 -53 -2 -68 -9 -21 -17
-23 -101 -25 l-91 -2 83 -3 c80 -4 82 -5 82 -28 0 -25 -1 -25 -84 -25 -82 0
-85 1 -98 26 -7 15 -23 34 -35 42 l-23 14 0 -1551 c0 -853 4 -1551 8 -1551 5
0 17 18 27 40 10 22 21 40 24 40 3 0 16 17 29 38 13 20 56 62 95 92 91 70 159
137 175 173 15 36 39 34 82 -7 42 -40 55 -61 65 -104 3 -18 11 -32 16 -32 12
0 12 -66 0 -88 -5 -10 -14 -71 -21 -137 -6 -66 -15 -136 -20 -155 -5 -19 -14
-85 -20 -146 -12 -126 -43 -282 -65 -325 -8 -15 -15 -33 -15 -38 0 -6 -23 -34
-51 -63 -29 -29 -64 -73 -80 -98 -15 -25 -40 -56 -54 -68 -15 -13 -36 -43 -46
-68 -11 -24 -24 -44 -30 -44 -5 0 -17 -17 -27 -37 -9 -21 -23 -44 -30 -53 -66
-76 -62 -58 -62 -260 l0 -185 20 25 c11 14 22 33 26 43 3 9 12 17 20 17 8 0
14 4 14 9 0 5 10 4 23 -2 30 -14 71 -124 62 -166 -3 -15 1 -92 10 -170 17
-149 11 -255 -17 -290 -14 -17 -39 -67 -82 -166 -15 -33 -38 -81 -52 -108
l-24 -47 0 -1860 0 -1860 3685 0 3685 0 0 3250 c0 2561 -3 3255 -12 3276 -10
22 -10 28 0 32 13 4 17 72 5 72 -16 0 -99 -32 -112 -43 -7 -6 -40 -12 -73 -12
l-59 0 -20 -58 c-18 -52 -18 -60 -4 -87 10 -19 15 -57 15 -112 0 -83 -3 -113
-41 -433 -11 -93 -23 -191 -26 -217 -7 -63 -34 -66 -53 -8 -16 48 -28 51 -32
8 l-3 -33 -33 33 c-38 36 -42 38 -42 17 0 -16 -45 -65 -60 -65 -5 0 -14 -18
-20 -40 -8 -29 -16 -40 -30 -40 -20 0 -25 -19 -23 -75 3 -54 -18 -240 -27
-243 -5 -2 -10 -14 -10 -27 0 -29 -27 -95 -39 -95 -6 0 -12 -8 -16 -19 -9 -28
-51 -15 -76 25 -27 45 -49 43 -79 -6 -14 -22 -29 -40 -33 -40 -10 0 -5 -76 7
-101 12 -27 -39 -54 -79 -42 -33 11 -55 4 -85 -25 -11 -11 -30 -13 -87 -8 -47
4 -73 2 -73 -4 0 -6 -11 -15 -24 -21 -25 -12 -66 2 -66 22 0 6 -14 33 -31 59
-29 45 -67 69 -89 55 -5 -3 -20 0 -34 6 -21 10 -29 9 -44 -4 -21 -20 -72 -23
-72 -5 0 9 -3 9 -12 0 -19 -19 -48 -14 -57 11 -5 12 -15 47 -24 77 -9 30 -23
82 -33 115 -9 33 -20 65 -24 70 -33 45 -60 111 -60 146 0 22 -4 49 -10 59 -5
10 -12 40 -15 67 -3 26 -8 65 -11 85 -3 20 -7 57 -9 82 -1 27 -11 56 -24 73
-61 79 -88 124 -110 178 -13 33 -32 74 -42 91 -11 17 -19 49 -19 70 0 28 -10
54 -34 90 -40 60 -35 84 19 84 25 0 35 5 40 20 3 11 4 24 1 28 -3 5 8 9 24 9
17 0 30 -4 30 -9 0 -5 5 -6 10 -3 6 3 10 2 10 -3 0 -5 30 6 67 24 75 38 97 41
120 18 13 -12 30 -14 87 -10 39 3 89 7 111 8 35 3 42 8 57 38 10 19 18 45 18
58 0 29 4 30 130 42 58 5 155 15 215 22 61 6 127 11 148 11 31 -1 37 2 37 20
0 35 12 44 70 51 130 17 317 43 415 57 144 21 204 22 250 5 52 -20 65 -15 65
25 0 19 6 32 18 35 9 4 41 17 70 31 l52 24 0 2135 0 2134 -3685 0 -3685 0 0
-880z m1384 655 c3 -9 0 -15 -9 -15 -20 0 -19 -17 1 -28 18 -10 32 -77 33
-157 1 -27 8 -63 17 -80 9 -16 18 -54 21 -82 5 -43 3 -53 -9 -53 -9 0 -21 -7
-28 -15 -6 -8 -36 -21 -65 -30 -92 -26 -124 4 -110 102 3 27 6 69 6 94 -1 36
5 51 24 69 18 17 25 34 25 62 0 21 -4 38 -10 38 -5 0 -10 19 -10 43 0 30 3 38
10 27 7 -12 12 -12 22 -2 6 6 20 12 30 12 10 0 21 7 24 15 4 8 10 15 14 15 4
0 10 -7 14 -15z m4886 -371 c39 -20 74 -43 77 -52 3 -8 20 -20 36 -27 29 -12
30 -15 33 -81 4 -77 -3 -127 -16 -119 -5 3 -11 1 -15 -5 -3 -5 -26 -10 -51
-10 -24 0 -44 -4 -44 -8 0 -22 27 -62 43 -62 19 0 23 -20 6 -37 -7 -7 -23 -7
-50 -1 -31 8 -44 7 -64 -6 -14 -9 -25 -21 -25 -26 0 -6 -8 -10 -17 -10 -14 0
-18 -9 -18 -43 1 -70 -24 -88 -51 -36 -13 25 -13 36 -4 59 6 16 11 43 10 62
-1 18 -2 44 -1 57 1 23 2 23 20 7 18 -17 19 -16 25 12 4 16 5 74 2 130 -3 61
-1 104 5 108 6 4 6 11 -1 19 -20 24 -31 77 -19 92 18 21 42 16 119 -23z m-140
-95 c12 -22 4 -79 -11 -79 -5 0 -17 16 -26 35 -13 28 -14 37 -3 50 17 20 27
19 40 -6z m930 -69 c0 -5 -7 -10 -15 -10 -8 0 -15 5 -15 10 0 6 7 10 15 10 8
0 15 -4 15 -10z m-1403 -137 c-2 -34 -5 -38 -29 -41 -35 -4 -37 17 -7 59 26
36 37 30 36 -18z m-429 -10 c-4 -33 -33 -41 -63 -19 -16 12 -17 16 -6 30 7 9
27 16 43 16 26 0 29 -3 26 -27z m-187 -52 c-35 -29 -39 -46 -15 -72 12 -14 13
-22 4 -38 -6 -12 -15 -19 -20 -16 -5 3 -19 1 -30 -5 -17 -9 -20 -8 -20 11 0
12 -2 20 -5 18 -2 -3 -2 -29 2 -59 l6 -53 21 26 c16 20 31 27 57 27 39 0 59
14 59 42 0 25 31 23 37 -2 7 -28 23 -25 23 4 0 29 24 56 50 56 40 0 68 -88 38
-118 -17 -17 -63 -15 -78 3 -7 8 -25 15 -41 15 -25 0 -29 -3 -25 -22 3 -13 8
-41 11 -63 4 -22 15 -45 26 -53 22 -15 24 -40 8 -91 -6 -20 -14 -48 -19 -63
-5 -16 -5 -28 -1 -28 4 0 7 -12 6 -27 0 -21 5 -29 22 -31 12 -2 26 -9 32 -16
7 -8 10 -95 9 -242 -1 -126 0 -364 1 -530 l3 -301 -33 -38 c-19 -21 -57 -48
-85 -61 -61 -27 -144 -41 -144 -25 0 6 5 11 10 11 6 0 10 7 10 16 0 11 -8 15
-27 12 -25 -3 -28 1 -35 37 -4 22 -2 64 3 93 6 30 8 66 4 80 -4 15 -6 99 -5
187 2 279 4 302 25 326 14 15 16 23 8 26 -8 3 -5 11 8 24 19 19 19 22 4 45
-16 24 -12 50 6 39 5 -4 9 8 9 25 0 23 -6 33 -25 40 -27 10 -30 17 -16 38 9
14 -5 120 -18 137 -5 5 -11 27 -15 47 -9 47 -64 188 -82 207 -11 12 -15 10
-25 -15 -43 -107 -59 -124 -116 -124 -24 0 -57 -7 -73 -15 -28 -15 -30 -14
-30 4 0 14 8 21 28 23 24 3 28 8 33 48 3 25 9 62 13 83 8 36 7 37 -20 37 -16
0 -50 -7 -77 -15 -26 -8 -67 -15 -92 -16 -27 -2 -45 -8 -45 -15 0 -17 -43 -26
-52 -11 -13 19 -4 42 15 39 10 -2 25 11 39 32 25 39 47 48 90 39 16 -3 54 0
85 7 45 11 56 11 63 0 10 -16 78 -21 103 -8 16 8 18 18 12 74 -8 72 -1 114 19
114 8 0 29 -19 48 -42 l33 -42 10 36 c5 19 16 42 24 51 8 10 12 31 9 52 -3 31
-1 36 19 42 13 3 26 3 29 0 3 -2 24 1 47 8 23 6 50 10 61 7 17 -5 16 -8 -13
-31z m-3301 9 c0 -5 -7 -10 -15 -10 -8 0 -15 5 -15 10 0 6 7 10 15 10 8 0 15
-4 15 -10z m3827 -105 c3 -9 2 -19 -1 -23 -8 -8 -38 10 -44 26 -6 18 38 14 45
-3z m-4991 -145 c18 0 18 -15 -1 -34 -8 -8 -15 -28 -15 -45 0 -21 -6 -32 -20
-36 -11 -3 -23 -18 -26 -33 -10 -40 -38 -62 -79 -62 -24 0 -35 -4 -35 -15 0
-8 -4 -15 -10 -15 -5 0 -10 20 -10 44 0 25 5 48 10 51 6 3 10 1 10 -4 0 -19
21 -12 51 16 29 28 38 53 18 53 -5 0 -7 5 -3 12 6 9 9 9 12 0 6 -19 21 -14 53
15 29 28 38 53 18 53 -5 0 -7 5 -3 12 6 9 9 9 12 0 2 -7 10 -12 18 -12z m3218
-126 c9 -8 16 -20 16 -25 0 -5 7 -9 15 -9 8 0 15 -5 15 -11 0 -5 -4 -8 -9 -4
-17 10 -21 -12 -6 -25 12 -10 15 -10 15 0 0 10 3 10 15 0 9 -7 14 -19 11 -25
-2 -7 5 -20 15 -29 15 -13 19 -28 18 -64 -2 -43 2 -54 44 -107 25 -33 47 -73
49 -90 2 -21 11 -34 31 -43 15 -7 25 -17 22 -23 -9 -14 -42 -11 -59 6 -8 8
-18 15 -22 15 -4 0 -4 -38 0 -85 9 -115 -7 -112 -63 13 -25 53 -76 161 -114
240 -68 139 -70 144 -63 200 8 73 37 100 70 66z m-2114 -103 c0 -39 5 -73 10
-76 6 -3 10 -21 10 -38 0 -18 12 -82 26 -142 14 -61 28 -128 31 -149 3 -22 16
-55 29 -73 23 -34 33 -85 37 -190 1 -35 5 -63 8 -63 4 0 10 -17 13 -37 12 -66
50 -171 92 -256 17 -34 18 -73 3 -82 -6 -4 -26 11 -44 33 -33 38 -89 71 -102
59 -3 -4 -1 -24 4 -45 8 -32 7 -42 -9 -61 -19 -24 -25 -87 -8 -93 6 -2 4 -13
-4 -29 -13 -25 -29 -106 -41 -204 -6 -49 -14 -82 -41 -160 -12 -35 -23 -45
-69 -68 -31 -15 -59 -27 -64 -27 -5 0 -13 12 -18 28 -12 39 -8 249 5 302 24
91 44 278 42 377 -1 56 3 126 9 155 5 29 15 177 20 328 24 616 21 580 42 580
17 0 19 -8 19 -69z m2700 59 c0 -5 -2 -10 -4 -10 -3 0 -8 5 -11 10 -3 6 -1 10
4 10 6 0 11 -4 11 -10z m-3092 -116 c36 -7 70 -55 84 -119 5 -22 13 -170 18
-330 6 -159 13 -344 16 -410 5 -99 3 -139 -14 -225 -12 -58 -28 -125 -36 -149
-9 -24 -16 -52 -16 -62 0 -11 -4 -19 -9 -19 -5 0 -12 -12 -16 -27 -11 -46 -66
-165 -95 -209 -15 -23 -31 -60 -35 -83 -4 -25 -12 -41 -21 -41 -22 0 -124
-162 -124 -199 0 -9 -7 -25 -15 -35 -19 -25 -19 -73 0 -106 8 -14 14 -19 15
-12 0 7 11 17 25 24 29 13 63 -5 110 -60 17 -19 43 -49 58 -66 22 -24 27 -37
23 -59 -8 -38 14 -319 26 -333 4 -6 6 -18 3 -26 -8 -20 129 -158 157 -158 5 0
6 -9 3 -20 -6 -18 -3 -20 18 -15 14 4 28 2 31 -4 5 -7 -5 -11 -27 -11 -23 0
-37 6 -41 16 -4 11 -13 14 -31 10 -16 -4 -27 -1 -33 10 -5 9 -18 14 -28 12
-21 -4 -31 -51 -38 -188 -7 -117 -16 -212 -22 -221 -2 -4 -16 -54 -30 -111
-13 -57 -30 -123 -36 -148 -14 -57 -28 -106 -74 -253 -27 -89 -35 -130 -31
-163 2 -24 1 -44 -4 -44 -5 0 -9 -9 -9 -21 0 -14 5 -19 14 -16 21 8 45 -34 39
-69 -6 -36 -26 -84 -34 -84 -4 0 -9 -19 -13 -41 -4 -23 -16 -53 -26 -67 -11
-13 -20 -33 -20 -44 0 -15 -5 -18 -20 -13 -11 4 -20 3 -19 -2 3 -20 -2 -23
-17 -9 -8 9 -19 14 -24 11 -5 -3 -10 1 -13 7 -3 11 -7 10 -19 0 -13 -10 -18
-9 -28 3 -7 9 -21 13 -30 10 -9 -3 -37 3 -61 13 -38 17 -46 26 -62 68 -23 64
-22 158 3 283 11 56 22 124 25 151 2 28 7 61 10 73 5 21 38 252 55 387 5 36 7
73 4 82 -3 9 0 35 6 58 6 23 13 69 16 103 5 71 40 410 55 537 9 78 6 153 -7
223 -6 29 -31 37 -40 12 -4 -8 -12 -15 -20 -15 -7 0 -17 -6 -21 -14 -4 -7 -19
-19 -32 -26 -28 -15 -171 -156 -171 -169 0 -5 -29 -40 -65 -77 -36 -38 -65
-75 -65 -81 0 -7 -11 -19 -24 -28 -12 -8 -35 -38 -51 -66 -15 -28 -33 -53 -41
-56 -7 -2 -16 -13 -19 -24 -4 -12 -16 -19 -30 -19 -13 0 -25 -5 -27 -11 -6
-19 -71 -27 -96 -11 -32 21 -68 92 -51 102 10 7 10 15 -1 40 -10 24 -11 76 -6
228 4 108 11 217 15 242 5 25 7 48 5 51 -2 3 5 59 16 123 11 65 20 135 20 157
0 21 4 39 9 39 5 0 -1 18 -12 41 -17 34 -18 46 -9 78 7 20 9 59 6 87 -5 36 -2
59 10 82 9 17 16 55 16 85 0 39 4 56 15 60 8 4 21 22 29 42 8 19 20 35 25 35
6 0 11 5 11 11 0 6 18 33 40 59 22 26 40 52 40 58 0 6 12 24 27 40 67 71 93
102 93 111 0 6 11 21 23 35 13 14 32 38 43 52 10 15 27 35 37 46 9 10 17 20
17 23 0 3 8 14 18 24 9 11 40 45 67 76 28 31 66 71 85 88 126 115 230 244 230
286 0 11 5 21 11 23 6 2 12 39 15 87 2 65 8 89 22 105 11 12 23 30 26 41 8 24
62 85 76 85 5 0 10 6 10 14 0 24 33 31 88 20z m3529 -46 c15 -6 36 -18 45 -26
16 -14 16 -16 -2 -39 -24 -31 -88 -78 -117 -85 -31 -8 -44 12 -45 72 0 81 44
110 119 78z m-747 -12 c0 -22 -17 -36 -43 -36 -29 0 -30 0 -12 20 15 17 55 28
55 16z m410 -12 c0 -17 -32 -27 -41 -12 -4 6 -6 15 -3 19 7 12 44 6 44 -7z
m80 -141 c0 -7 -5 -13 -11 -13 -13 0 6 -19 43 -42 18 -12 28 -14 30 -6 7 21
63 -6 66 -33 2 -13 11 -32 19 -41 23 -25 -1 -23 -38 3 -16 11 -29 17 -29 13 0
-3 -7 0 -16 7 -15 13 -16 0 -10 -156 4 -94 7 -193 6 -222 0 -28 5 -55 10 -58
7 -4 9 2 4 19 -4 15 -2 26 4 26 14 0 27 -56 23 -101 -1 -20 2 -40 8 -44 8 -4
9 -28 5 -71 -5 -45 -3 -64 5 -64 6 0 11 5 11 10 0 6 3 10 8 10 4 0 7 -27 7
-60 0 -33 -3 -60 -7 -60 -20 0 -35 13 -31 28 2 10 -1 28 -7 42 -9 22 -10 21
-5 -12 5 -35 -8 -61 -18 -36 -3 7 -6 1 -6 -14 -1 -15 7 -34 17 -44 9 -10 17
-27 17 -38 1 -12 5 -28 10 -36 6 -8 10 -35 11 -58 0 -26 7 -48 15 -53 11 -7
11 -9 1 -9 -8 0 -12 -6 -9 -12 2 -7 10 -12 16 -11 30 7 -9 -102 -53 -150 -26
-28 -61 -37 -54 -15 3 7 -2 19 -10 27 -12 12 -12 15 2 23 26 14 19 28 -14 28
-18 0 -33 -6 -36 -15 -4 -8 -13 -15 -21 -15 -8 0 -11 -4 -8 -10 3 -5 -1 -10
-10 -10 -9 0 -15 6 -14 13 3 19 -19 67 -31 67 -6 0 -9 3 -6 8 2 4 -13 7 -34 7
-26 0 -45 8 -64 25 -31 30 -32 38 -4 42 27 4 32 35 6 44 -11 3 -22 3 -25 0 -3
-3 -15 0 -26 6 -20 10 -19 11 9 24 l29 13 -40 -4 -40 -5 31 14 c40 19 60 44
47 57 -7 7 -16 3 -29 -14 -24 -30 -70 -41 -79 -18 -6 14 -7 14 -16 -1 -7 -13
-15 -15 -37 -7 -17 6 -46 6 -75 0 -29 -5 -50 -5 -53 1 -3 5 -13 7 -21 4 -20
-8 -43 11 -36 30 3 10 0 12 -10 8 -9 -3 -18 -13 -22 -21 -5 -14 -9 -13 -27 7
-17 18 -19 26 -10 41 8 12 8 19 2 19 -5 0 -10 -4 -10 -10 0 -5 -6 -10 -14 -10
-8 0 -16 -6 -18 -12 -3 -9 -10 -8 -22 5 -22 22 -16 39 20 56 16 7 35 16 43 20
8 4 18 14 21 22 32 71 60 114 76 117 19 3 19 2 0 -12 -17 -14 -15 -15 33 -22
59 -8 68 -15 75 -69 13 -85 19 -110 30 -117 18 -12 29 -9 23 7 -8 19 10 30 28
15 16 -14 55 15 55 41 0 9 8 19 18 23 9 3 22 9 29 12 7 3 16 -8 22 -28 l9 -33
1 35 c1 19 -3 49 -8 66 -17 60 -24 154 -11 154 7 0 10 -6 7 -13 -3 -8 7 -21
23 -30 26 -16 28 -16 32 1 3 10 14 18 26 19 15 1 19 -3 15 -13 -3 -8 -12 -13
-19 -10 -9 4 -14 -2 -14 -15 0 -15 5 -19 16 -15 9 3 27 6 41 6 19 0 24 4 19
16 -5 12 -2 15 9 10 11 -4 15 0 13 12 -2 9 3 16 10 15 8 -2 12 11 12 42 0 42
13 61 23 33 7 -20 27 62 27 110 0 23 7 59 16 80 13 30 14 64 10 186 -3 82 -8
152 -11 154 -3 3 -5 -2 -5 -11 0 -9 -3 -16 -7 -15 -5 0 -16 -2 -26 -7 -27 -12
-49 16 -57 72 -4 26 -10 55 -14 65 -6 14 -1 13 38 -5 25 -11 46 -27 46 -34z
m-1859 -22 c7 -33 19 -54 19 -31 0 10 3 10 16 -1 10 -8 43 -14 85 -14 75 0 85
-9 50 -47 -14 -14 -17 -26 -12 -42 5 -11 12 -48 16 -81 4 -33 14 -76 22 -95 8
-19 16 -70 19 -112 3 -72 2 -78 -16 -78 -11 0 -20 5 -20 10 0 14 -93 152 -114
169 -9 8 -42 55 -73 105 -31 50 -59 93 -63 96 -13 8 -50 84 -50 100 0 9 7 25
15 37 12 17 24 21 57 19 39 -2 43 -5 49 -35z m2144 4 c0 -15 -9 -19 -52 -21
-57 -3 -81 12 -36 21 15 4 37 10 48 15 27 12 40 7 40 -15z m2360 -54 c-3 -5 5
-13 16 -16 46 -15 -7 -21 -116 -15 -118 7 -123 9 -33 16 45 3 108 14 136 23 2
1 1 -3 -3 -8z m-2438 -103 c-3 -7 -5 -2 -5 12 0 14 2 19 5 13 2 -7 2 -19 0
-25z m1073 -48 c0 -5 18 -10 41 -10 24 0 38 -4 34 -10 -11 -17 -61 -11 -80 10
-10 11 -13 20 -7 20 7 0 12 -4 12 -10z m-980 -14 c0 -3 -4 -8 -10 -11 -5 -3
-10 -1 -10 4 0 6 5 11 10 11 6 0 10 -2 10 -4z m-354 -371 c0 -14 -4 -25 -7
-25 -9 0 -18 37 -11 44 12 13 20 5 18 -19z m-42 -27 c8 -30 7 -38 -1 -38 -11
0 -32 48 -25 55 11 10 20 5 26 -17z m307 -63 c-1 -15 -24 -12 -29 3 -3 9 2 13
12 10 10 -1 17 -7 17 -13z m-54 -137 c-3 -8 -6 -5 -6 6 -1 11 2 17 5 13 3 -3
4 -12 1 -19z m73 -60 c0 -18 3 -57 7 -87 4 -39 3 -52 -5 -47 -7 4 -11 17 -11
29 0 12 -1 48 -4 80 -2 31 0 57 4 57 5 0 9 -15 9 -32z m-623 -20 c-3 -7 -5 -2
-5 12 0 14 2 19 5 13 2 -7 2 -19 0 -25z m583 12 c0 -5 -4 -10 -10 -10 -5 0
-10 5 -10 10 0 6 5 10 10 10 6 0 10 -4 10 -10z m-40 -49 c0 -5 3 -24 7 -42 6
-31 5 -33 -10 -20 -18 14 -24 71 -7 71 6 0 10 -4 10 -9z m60 -43 c7 -29 14
-73 15 -98 2 -34 6 -44 18 -42 23 4 29 -12 47 -127 5 -30 16 -61 24 -70 15
-14 16 -12 16 21 0 36 20 66 21 31 0 -10 2 -53 3 -95 l4 -78 -58 0 c-65 0 -77
-13 -65 -70 6 -26 3 -31 -20 -40 -15 -6 -68 -12 -118 -15 l-92 -4 70 19 c39
10 78 16 88 14 24 -7 22 13 -3 21 -11 3 -20 11 -20 16 0 13 14 11 28 -3 9 -9
12 -7 12 11 0 17 -4 21 -18 17 -14 -5 -18 -1 -17 18 0 13 3 28 8 32 4 4 7 52
7 106 0 79 3 98 15 98 12 0 14 17 10 101 -2 55 -7 120 -11 145 -5 35 -3 44 9
44 9 0 19 -18 27 -52z m-785 -8 c3 -5 1 -10 -4 -10 -6 0 -11 5 -11 10 0 6 2
10 4 10 3 0 8 -4 11 -10z m-1555 -77 c0 -45 -1 -46 -19 -29 -16 15 -20 42 -12
74 1 1 8 2 16 2 11 0 15 -12 15 -47z m2420 -15 c0 -21 -4 -38 -9 -38 -13 0
-22 46 -15 76 9 35 24 12 24 -38z m-130 21 c0 -11 -4 -17 -10 -14 -5 3 -10 13
-10 21 0 8 5 14 10 14 6 0 10 -9 10 -21z m-830 2 c0 -5 -12 -12 -27 -16 -24
-6 -25 -8 -10 -16 11 -7 24 -6 37 1 22 12 40 6 40 -13 0 -7 -4 -6 -10 3 -7 10
-10 11 -10 2 0 -7 -16 -20 -35 -29 -44 -21 -45 -43 -2 -68 17 -10 35 -24 40
-31 4 -7 13 -11 20 -8 7 2 24 -10 37 -28 13 -18 32 -39 42 -46 11 -8 18 -23
16 -35 -2 -14 2 -21 10 -19 6 1 12 -2 12 -8 0 -6 -4 -10 -10 -10 -5 0 -10 -6
-10 -14 0 -9 7 -12 19 -9 16 4 19 1 14 -16 -3 -12 -13 -21 -24 -21 -10 0 -20
-4 -23 -8 -9 -14 5 -51 17 -46 18 7 20 -91 3 -124 -14 -27 -14 -27 -14 23 0
48 -2 52 -65 111 -35 34 -79 69 -98 79 -112 59 -111 59 -120 44 -9 -15 16 -30
39 -22 6 3 12 0 12 -6 0 -14 -57 -15 -65 -1 -3 6 -15 10 -26 10 -10 0 -19 5
-19 10 0 6 -8 10 -17 10 -13 0 -14 3 -6 8 9 5 1 12 -22 21 -19 7 -35 16 -35
20 0 4 -15 5 -34 3 -18 -2 -37 1 -40 7 -5 8 17 11 72 11 l80 0 7 56 c4 31 5
57 3 58 -19 10 -67 22 -62 15 9 -15 -13 -10 -27 7 -10 13 -10 17 0 24 8 4 10
13 7 19 -8 12 46 16 58 4 3 -4 28 -8 54 -10 26 -1 57 -5 70 -8 26 -6 32 19 6
29 -21 8 -15 15 33 31 45 17 63 18 63 6z m130 -181 c0 -5 -4 -10 -10 -10 -5 0
-10 5 -10 10 0 6 5 10 10 10 6 0 10 -4 10 -10z m-735 -50 c-3 -5 -23 -9 -43
-9 l-37 2 40 7 c22 4 41 8 43 9 2 0 0 -3 -3 -9z m190 -10 c-17 -6 -14 -8 15
-12 31 -4 29 -5 -12 -6 -38 -2 -46 1 -42 13 4 8 18 15 33 14 23 0 24 -1 6 -9z
m-1054 -38 c7 -15 15 -30 17 -34 2 -5 -2 -8 -7 -8 -6 0 -11 6 -11 14 0 8 -15
20 -34 27 -31 11 -33 14 -18 25 21 16 36 9 53 -24z m2094 28 c-3 -5 -13 -10
-21 -10 -8 0 -14 5 -14 10 0 6 9 10 21 10 11 0 17 -4 14 -10z m-1100 -11 c6
-4 19 -9 30 -12 11 -3 5 -5 -14 -4 -20 1 -36 -3 -38 -10 -3 -7 2 -13 11 -13 9
0 16 -4 16 -10 0 -5 22 -10 48 -10 45 0 48 -2 50 -27 1 -16 4 -43 6 -60 3 -24
1 -33 -10 -33 -16 0 -19 16 -4 25 14 9 2 25 -19 25 -9 0 -36 9 -60 20 -34 17
-41 25 -36 40 5 16 2 20 -14 20 -14 0 -21 6 -21 20 0 18 -7 20 -55 20 -42 0
-55 -3 -55 -15 0 -19 -2 -19 -75 4 -43 13 -54 20 -40 24 29 8 268 5 280 -4z
m-325 -9 c11 -7 7 -10 -17 -10 -18 0 -33 5 -33 10 0 13 30 13 50 0z m-968 -62
c-9 -9 -15 -9 -24 0 -9 9 -7 12 12 12 19 0 21 -3 12 -12z m571 -22 c15 -4 27
-10 27 -15 0 -5 -9 -7 -20 -4 -20 5 -28 -11 -10 -22 15 -9 0 -35 -21 -35 -11
0 -19 7 -19 18 -1 15 -2 15 -15 -2 -8 -11 -15 -14 -15 -8 0 7 -6 11 -12 10
-17 -4 -23 43 -6 53 22 15 33 10 12 -5 -14 -11 -16 -18 -8 -26 9 -9 16 -6 27
11 9 12 14 26 11 31 -3 4 1 6 8 4 7 -3 25 -7 41 -10z m1815 -68 c16 -16 15
-58 -1 -58 -8 0 -22 9 -32 20 -15 16 -15 22 -5 35 15 18 22 19 38 3z m1300
-44 c44 -31 13 -104 -45 -104 -58 0 -83 61 -41 100 26 24 56 26 86 4z m-3086
-53 c-4 -10 -7 -10 -14 4 -5 9 -7 24 -3 33 6 15 8 15 15 -3 4 -11 5 -26 2 -34z
m181 18 c45 -7 67 -16 67 -25 0 -8 7 -14 15 -14 8 0 15 7 15 15 0 9 10 15 28
16 15 1 36 2 47 3 13 0 26 -10 36 -29 9 -16 26 -35 38 -41 35 -18 50 -46 51
-91 0 -41 0 -42 -29 -33 -19 5 -33 4 -40 -3 -8 -8 -11 -8 -11 1 0 8 -17 12
-45 12 -29 0 -45 4 -46 13 0 9 -2 9 -6 -1 -2 -6 -9 -10 -14 -6 -5 3 -9 1 -9
-4 0 -6 7 -12 15 -16 22 -8 18 -25 -5 -19 -18 5 -20 0 -20 -60 0 -35 3 -79 6
-96 7 -32 7 -32 28 -13 24 21 73 38 161 55 60 12 60 12 88 -17 33 -34 21 -51
-28 -39 -16 4 -63 7 -103 8 -70 1 -73 0 -68 -21 4 -13 -2 -31 -13 -46 -28 -35
-43 -98 -32 -134 5 -16 30 -68 54 -116 41 -81 45 -93 46 -170 0 -46 -3 -110
-8 -143 -8 -51 -5 -80 20 -195 64 -291 76 -326 244 -710 105 -238 169 -396
215 -530 12 -36 45 -125 72 -199 27 -74 67 -186 88 -250 38 -115 78 -226 119
-329 14 -34 23 -86 27 -145 10 -179 39 -335 109 -592 47 -174 88 -348 134
-575 17 -80 44 -203 60 -275 16 -71 43 -215 60 -320 17 -104 42 -263 57 -353
30 -186 28 -198 -38 -258 -83 -75 -205 -114 -330 -106 -52 3 -58 6 -58 25 0
23 20 62 20 40 0 -7 7 -10 16 -6 13 5 15 17 11 67 -6 71 -28 189 -37 196 -10
8 -28 61 -40 120 -7 30 -18 64 -25 75 -6 11 -15 42 -19 69 -4 26 -16 82 -27
124 -11 41 -18 80 -15 87 5 14 -18 88 -25 81 -2 -2 -3 19 -1 47 2 29 -4 81
-13 117 -9 36 -16 101 -16 144 0 44 -4 98 -9 120 -5 23 -12 82 -15 131 -3 50
-11 105 -16 122 -6 18 -8 36 -6 40 3 5 -4 49 -15 98 -11 50 -21 101 -23 115
-1 14 -5 61 -9 105 -4 44 -9 94 -10 110 -2 17 -8 46 -14 65 -6 19 -18 62 -27
95 -10 33 -35 101 -56 150 -43 102 -68 188 -74 258 -5 53 -26 105 -63 154 -26
35 -72 161 -72 198 0 12 6 38 14 56 21 53 4 191 -40 329 -63 197 -75 235 -84
245 -8 10 -101 293 -133 405 -9 30 -15 69 -13 85 2 17 -2 44 -8 60 -7 17 -16
48 -20 69 -4 22 -19 76 -32 120 -14 45 -30 99 -36 121 -6 22 -17 54 -24 70 -7
17 -17 50 -23 74 -10 47 -39 81 -69 81 -37 0 -52 23 -60 94 -7 57 -6 74 10
104 19 38 16 62 -10 92 -8 10 -21 35 -28 55 -11 33 -10 39 7 56 15 15 17 24 9
39 -6 11 -8 20 -5 20 3 0 -2 12 -12 28 -9 15 13 -3 50 -40 37 -38 72 -68 78
-68 5 0 7 5 4 10 -9 14 19 12 34 -2 10 -11 15 -9 24 7 6 11 13 30 14 43 1 13
7 30 14 38 8 9 10 34 6 69 -4 39 -2 53 5 49 8 -5 9 -1 3 12 -4 10 -10 35 -13
54 -2 19 -15 45 -28 58 -14 14 -24 34 -24 52 0 15 -4 30 -8 32 -5 2 -27 31
-50 65 -23 33 -47 63 -54 65 -15 5 -3 37 17 44 9 4 24 -1 34 -10 24 -22 28
-20 29 14 0 17 4 39 7 50 4 13 2 20 -6 20 -10 0 -10 3 -1 12 22 22 12 28 -47
28 -57 0 -58 1 -53 25 3 18 -1 30 -13 39 -10 7 -20 23 -22 36 -4 25 -6 25 140
-1z m1495 3 c3 -9 -2 -13 -14 -10 -9 1 -19 9 -22 16 -3 9 2 13 14 10 9 -1 19
-9 22 -16z m-978 -2 c0 -5 -7 -7 -15 -4 -8 4 -15 8 -15 10 0 2 7 4 15 4 8 0
15 -4 15 -10z m1053 -7 c-7 -2 -21 -2 -30 0 -10 3 -4 5 12 5 17 0 24 -2 18 -5z
m74 1 c-3 -3 -12 -4 -19 -1 -8 3 -5 6 6 6 11 1 17 -2 13 -5z m-1772 -94 c3 -5
2 -10 -4 -10 -5 0 -13 5 -16 10 -3 6 -2 10 4 10 5 0 13 -4 16 -10z m1242 -12
c-3 -8 -6 -5 -6 6 -1 11 2 17 5 13 3 -3 4 -12 1 -19z m-1610 -48 c-5 -40 -40
-100 -59 -100 -21 0 -1 81 28 111 15 16 30 29 32 29 3 0 2 -18 -1 -40z m383
-99 c0 -6 -4 -13 -10 -16 -5 -3 -10 1 -10 9 0 9 5 16 10 16 6 0 10 -4 10 -9z
m497 -17 c2 -5 -8 -10 -22 -10 -21 -2 -24 1 -14 12 13 15 31 14 36 -2z m-557
2 c0 -8 -51 -13 -56 -5 -3 5 9 9 25 9 17 0 31 -2 31 -4z m1734 -51 c9 -23 -24
-56 -52 -53 -37 4 -45 54 -11 67 28 10 56 4 63 -14z m-1567 -63 c6 -11 8 -25
3 -32 -12 -20 -79 -40 -133 -40 -45 0 -48 1 -42 23 12 38 32 50 85 51 27 1 50
4 50 9 0 14 25 7 37 -11z m4075 -107 c14 -27 27 -58 27 -67 1 -23 -24 -23 -57
1 -15 10 -43 22 -62 26 -41 9 -106 40 -115 55 -18 29 4 37 92 36 l88 -1 27
-50z m-4412 25 c0 -5 -4 -10 -10 -10 -5 0 -10 5 -10 10 0 6 5 10 10 10 6 0 10
-4 10 -10z m940 -5 c0 -8 -7 -15 -15 -15 -16 0 -20 12 -8 23 11 12 23 8 23 -8z
m-760 -23 c0 -9 -9 -28 -19 -41 -14 -18 -18 -36 -15 -70 4 -38 2 -43 -8 -30
-15 17 -48 33 -63 30 -5 -2 -7 1 -2 5 4 4 0 16 -10 26 -15 17 -15 18 5 18 13
0 22 -6 22 -15 0 -8 7 -15 15 -15 8 0 15 7 15 15 0 17 -70 38 -94 29 -11 -4
-16 -1 -16 12 0 38 18 49 87 54 78 6 83 5 83 -18z m3049 -26 c17 -38 22 -43
45 -39 30 6 56 -11 56 -38 0 -10 9 -23 20 -29 15 -8 20 -21 20 -51 0 -26 5
-42 15 -45 24 -9 45 15 45 51 0 19 8 39 19 49 11 10 21 28 23 39 5 33 50 45
92 24 29 -14 35 -22 38 -54 2 -31 7 -39 27 -41 28 -4 41 12 41 53 0 37 19 50
87 60 83 11 154 -10 338 -100 94 -45 193 -93 222 -105 81 -34 83 -68 3 -71
-25 -1 -74 -5 -110 -10 -36 -5 -132 -13 -215 -19 -82 -5 -202 -16 -265 -25
-63 -9 -176 -20 -250 -26 -74 -5 -159 -12 -188 -15 -30 -3 -58 -2 -64 4 -5 5
-11 36 -14 68 -10 112 -5 107 -87 102 -55 -2 -80 -9 -105 -26 -31 -22 -32 -26
-32 -90 0 -37 -4 -73 -9 -80 -5 -9 -32 -13 -87 -12 -180 3 -266 0 -392 -16
-183 -22 -240 -11 -227 45 6 26 4 27 -82 44 -48 10 -110 26 -136 35 -48 16
-49 16 -66 -7 -16 -21 -23 -23 -62 -17 -48 8 -99 48 -99 77 0 30 19 32 73 6
29 -14 62 -27 74 -30 37 -8 9 46 -35 67 -20 10 -59 35 -87 56 -27 21 -76 52
-107 70 -32 17 -58 36 -58 40 0 5 13 18 29 29 26 19 48 22 218 26 103 3 330 6
503 6 217 1 319 5 329 13 16 12 139 22 319 24 l123 2 18 -44z m-2432 -77 c7
-19 12 -51 12 -71 1 -61 50 -199 92 -257 47 -65 49 -81 12 -80 -49 1 -65 14
-82 65 -12 37 -21 49 -36 49 -17 0 -20 6 -17 36 2 20 -3 63 -11 95 -24 94 -30
173 -16 190 17 21 32 13 46 -27z m-178 -25 c13 -27 25 -65 25 -84 1 -19 8 -40
16 -47 9 -6 29 -37 44 -67 28 -55 28 -57 10 -70 -10 -8 -23 -12 -27 -9 -5 3
-11 -4 -14 -16 -6 -25 -19 -27 -39 -7 -18 18 -18 40 0 33 8 -3 19 5 26 18 11
20 9 31 -14 79 -15 31 -31 56 -36 56 -6 0 -10 8 -10 18 0 10 -11 40 -24 67
-19 37 -23 53 -15 67 15 28 30 18 58 -38z m412 -26 c14 -17 18 -39 19 -88 0
-41 11 -103 30 -169 17 -57 30 -114 30 -127 0 -13 5 -24 11 -24 5 0 7 6 4 13
-6 11 63 -61 103 -108 149 -173 215 -277 248 -391 14 -48 45 -135 70 -193 25
-58 76 -185 114 -281 38 -96 92 -231 120 -300 28 -69 57 -141 64 -160 8 -19
27 -69 44 -110 47 -114 118 -300 132 -345 7 -22 39 -110 73 -195 50 -131 59
-163 57 -210 -5 -140 -2 -327 9 -450 7 -74 14 -308 16 -520 3 -363 3 -370 -5
-125 -5 143 -15 317 -24 387 -9 69 -16 129 -16 132 0 3 -4 6 -8 6 -5 0 -16
-27 -26 -61 -11 -40 -21 -59 -29 -55 -6 3 -20 9 -29 12 -10 4 -18 13 -18 21 0
7 -7 25 -16 38 -13 20 -14 25 -3 25 9 0 6 7 -8 18 -17 13 -27 42 -43 116 -13
67 -17 102 -10 106 7 5 8 21 1 51 -8 41 -6 179 4 206 2 7 -5 38 -15 69 -11 31
-22 78 -26 105 -4 27 -10 49 -15 49 -5 0 -9 13 -9 29 0 35 -23 61 -47 55 -33
-9 -57 50 -54 134 2 64 -1 76 -19 92 -11 10 -28 38 -36 64 -16 46 -37 60 -48
31 -15 -40 -41 12 -52 105 -4 37 -16 69 -35 97 -16 23 -29 48 -29 57 0 15 -60
172 -79 206 -5 9 -12 31 -16 50 -4 19 -11 41 -16 50 -4 8 -16 40 -25 70 -9 30
-30 83 -45 117 -57 123 -88 221 -135 432 -7 34 -47 78 -63 73 -17 -6 -41 24
-41 51 0 10 -11 41 -25 69 -14 27 -25 58 -25 69 0 11 -9 27 -20 36 -14 12 -20
30 -20 56 0 21 -4 46 -9 55 -12 23 -24 122 -25 212 0 47 -5 79 -13 85 -7 6
-18 31 -25 57 -11 42 -10 49 7 67 14 16 18 38 19 91 1 38 3 70 4 70 2 0 12
-10 23 -22z m-2296 -68 c3 -5 1 -10 -4 -10 -6 0 -11 5 -11 10 0 6 2 10 4 10 3
0 8 -4 11 -10z m2079 -250 c21 -36 14 -50 -24 -50 -50 0 -84 75 -37 82 32 6
41 1 61 -32z m-1846 -22 c17 -17 15 -28 -7 -28 -22 0 -35 15 -26 30 8 13 18
13 33 -2z m1992 -78 c11 -11 20 -28 20 -37 0 -10 3 -28 6 -40 8 -30 -7 -29
-56 3 -43 28 -51 44 -23 44 13 0 14 3 6 11 -14 14 -6 39 13 39 8 0 23 -9 34
-20z m3754 -323 c0 -56 -4 -124 -8 -152 l-8 -50 -18 35 c-27 54 -54 223 -40
250 14 25 51 42 65 28 6 -5 10 -55 9 -111z m-2068 -242 c10 -8 17 -15 14 -15
-36 -8 -49 -8 -72 1 -15 6 -25 15 -22 20 8 14 58 10 80 -6z m-1596 -314 c13
-25 13 -31 -2 -31 -7 0 -24 12 -37 25 l-23 25 26 0 c15 0 30 -8 36 -19z
m-2220 -246 c0 -14 -4 -25 -9 -25 -6 0 -7 -16 -4 -35 5 -31 3 -35 -15 -35 -32
0 -37 19 -13 51 11 15 21 37 21 49 0 11 5 20 10 20 6 0 10 -11 10 -25z m-29
-121 c11 -13 10 -28 -5 -87 -10 -40 -24 -85 -32 -101 -8 -16 -14 -37 -14 -47
0 -16 -34 -95 -65 -151 -5 -10 -16 -18 -24 -18 -11 0 -12 3 -4 11 6 6 9 18 6
26 -3 8 0 19 8 24 8 5 9 9 2 9 -8 0 -7 14 4 48 8 26 22 72 30 102 8 30 22 61
31 68 14 11 14 14 3 21 -8 5 -10 14 -5 22 4 7 9 24 10 37 3 24 21 52 34 52 4
0 13 -7 21 -16z m1984 -1514 c4 -6 10 -8 14 -5 5 2 19 -7 31 -20 13 -14 29
-25 36 -25 27 0 32 -229 6 -238 -18 -6 -16 -186 2 -205 18 -18 33 -167 17
-167 -6 0 -11 -17 -11 -40 0 -22 5 -40 10 -40 6 0 10 9 10 19 0 42 18 28 39
-29 15 -42 21 -76 18 -112 -3 -41 -5 -48 -11 -30 -10 27 -22 28 -29 2 -3 -13
0 -20 9 -20 8 0 14 -10 14 -25 0 -20 -5 -25 -24 -25 -13 0 -27 6 -29 13 -3 6
-6 2 -6 -9 -1 -12 5 -34 13 -49 8 -15 12 -34 9 -41 -3 -8 -1 -14 4 -14 5 0 17
-44 26 -97 27 -167 30 -202 16 -219 -10 -12 -9 -24 5 -65 10 -27 15 -60 12
-73 -3 -14 -1 -26 4 -28 7 -2 3 -26 -10 -62 -14 -43 -20 -85 -20 -155 -1 -60
-6 -105 -14 -120 -15 -27 -3 -119 17 -136 7 -5 13 -21 15 -35 1 -14 -1 -20 -5
-15 -5 6 -24 19 -43 29 -46 26 -90 66 -90 83 0 7 -4 13 -9 13 -4 0 -17 28 -27
63 -25 85 -24 323 4 552 17 148 19 195 11 365 -4 107 -11 213 -14 235 -15 112
-47 713 -39 727 7 11 32 10 39 -2z m-513 -693 c-24 -13 -40 -25 -37 -29 3 -3
-7 -3 -22 0 -27 5 -26 6 22 29 64 29 94 29 37 0z m78 13 c22 -12 40 -61 40
-109 0 -47 24 -81 56 -81 14 0 35 -11 48 -25 13 -14 30 -25 39 -25 9 0 19 -5
23 -12 7 -11 -30 -8 -68 7 -12 5 -19 -2 -29 -29 -7 -20 -16 -36 -19 -36 -4 0
-6 24 -7 53 0 51 0 52 -32 55 -25 3 -38 -3 -57 -25 -28 -33 -29 -35 -9 -73 15
-28 32 -35 77 -32 14 1 16 -4 12 -27 -5 -23 0 -32 28 -54 28 -23 30 -27 12
-27 -11 0 -24 3 -28 7 -3 4 -27 7 -51 8 -39 0 -44 -2 -39 -17 4 -13 1 -16 -10
-12 -8 3 -22 1 -32 -4 -10 -6 -30 -5 -55 2 -47 14 -55 22 -40 40 9 10 9 15 1
18 -7 2 -12 28 -13 59 -3 78 -25 109 -80 110 l-42 1 30 13 c40 19 106 19 131
0 22 -17 62 -19 84 -5 11 7 7 8 -15 4 l-31 -6 6 64 c3 35 15 81 27 103 11 22
18 46 16 53 -6 15 2 15 27 2z m-565 -21 c66 -7 119 -20 156 -36 65 -29 125
-32 182 -8 51 21 47 8 -5 -15 -24 -11 -64 -20 -89 -20 -52 0 -85 -26 -76 -60
7 -27 -10 -36 -32 -16 -22 20 -51 21 -51 1 0 -17 -32 -20 -61 -5 -17 10 -18
13 -4 26 8 9 15 26 15 40 0 14 7 27 15 30 8 4 12 10 9 15 -6 10 -44 -7 -56
-25 -6 -8 -10 -8 -15 0 -8 11 -85 33 -128 37 -11 1 -25 6 -32 10 -6 4 -14 3
-17 -2 -3 -4 -20 -11 -37 -15 -17 -3 -44 -17 -61 -31 -16 -14 -36 -25 -43 -25
-7 0 -15 -5 -17 -11 -2 -5 -16 -12 -32 -13 -15 -2 -32 -10 -37 -17 -13 -21
-10 3 4 27 20 35 80 81 117 89 19 4 60 13 90 20 71 17 86 17 205 4z m469 -74
c-4 -8 -8 -15 -10 -15 -2 0 -4 7 -4 15 0 8 4 15 10 15 5 0 7 -7 4 -15z m11
-45 c3 -5 1 -10 -4 -10 -6 0 -11 5 -11 10 0 6 2 10 4 10 3 0 8 -4 11 -10z
m-396 -87 c0 -11 -3 -13 -6 -5 -2 6 -9 10 -14 6 -5 -3 -9 0 -9 5 0 6 7 11 15
11 8 0 15 -8 14 -17z m141 -10 c0 -10 -5 -25 -10 -33 -8 -13 -10 -13 -10 2 0
9 -3 23 -6 32 -4 11 -1 16 10 16 9 0 16 -8 16 -17z m32 -25 c-7 -7 -12 -8 -12
-2 0 6 3 14 7 17 3 4 9 5 12 2 2 -3 -1 -11 -7 -17z m592 12 c14 -5 30 -18 36
-30 9 -17 7 -22 -13 -31 -35 -16 -63 2 -61 38 2 39 0 38 38 23z m-1514 -95
c-14 -17 -30 -20 -30 -5 0 6 7 10 15 10 8 0 15 5 15 12 0 6 3 8 6 5 4 -4 1
-13 -6 -22z m-24 -41 c-3 -9 -6 -22 -6 -30 0 -9 -4 -13 -9 -10 -11 7 -2 56 11
56 6 0 7 -7 4 -16z m-49 -46 c-3 -8 -6 -5 -6 6 -1 11 2 17 5 13 3 -3 4 -12 1
-19z m-17 -27 c0 -9 -41 -23 -49 -16 -3 4 28 20 47 24 1 1 2 -3 2 -8z m-39
-164 c-10 -9 -11 -8 -5 6 3 10 9 15 12 12 3 -3 0 -11 -7 -18z m1089 -435 c0
-9 -13 -43 -29 -75 -27 -54 -30 -57 -40 -39 -9 17 -7 26 14 48 14 15 25 39 25
54 0 15 3 30 6 33 10 10 24 -2 24 -21z m-1505 -742 c7 -11 -25 -50 -42 -50
-24 0 -26 23 -3 42 25 20 36 22 45 8z m1847 -361 c75 -102 167 -216 211 -260
30 -30 59 -65 66 -77 11 -20 9 -22 -12 -22 -24 0 -111 76 -143 125 -9 14 -20
25 -24 25 -7 0 -102 93 -127 123 -111 138 -122 188 -43 199 22 3 27 -3 42 -46
10 -27 23 -57 30 -67z m-1124 -151 c7 -7 12 -28 12 -47 0 -48 -23 -134 -37
-138 -15 -5 -46 29 -73 80 -21 40 -21 44 -6 80 15 33 20 37 54 37 21 0 43 -5
50 -12z m5202 -38 c0 -5 -14 -7 -32 -3 -46 8 -48 13 -5 13 21 0 37 -4 37 -10z
m248 -212 c33 -67 51 -138 34 -138 -19 0 -33 29 -44 91 -6 35 -17 71 -24 80
-16 18 -18 29 -5 29 4 0 22 -28 39 -62z"/>
<path d="M6284 10235 c-4 -8 -4 -22 0 -30 7 -20 36 -8 36 15 0 23 -29 35 -36
15z"/>
<path d="M4870 9873 c0 -28 10 -53 21 -53 14 0 10 33 -6 54 -15 19 -15 19 -15
-1z"/>
<path d="M4937 9626 c-9 -23 3 -80 23 -106 27 -36 31 -22 14 45 -17 66 -28 84
-37 61z"/>
<path d="M5047 9572 c-10 -10 -17 -22 -17 -27 0 -5 9 1 21 14 12 12 19 24 17
27 -3 2 -12 -4 -21 -14z"/>
<path d="M4591 8803 c-1 -23 4 -45 9 -48 12 -7 12 29 0 65 -7 21 -8 19 -9 -17z"/>
<path d="M4540 8725 c0 -8 2 -15 4 -15 2 0 6 7 10 15 3 8 1 15 -4 15 -6 0 -10
-7 -10 -15z"/>
<path d="M4595 8627 c0 -34 3 -43 17 -43 10 0 14 5 9 11 -4 5 -8 21 -9 34 -2
43 -17 41 -17 -2z"/>
<path d="M4637 8664 c-4 -4 -7 -14 -7 -23 0 -11 3 -12 11 -4 6 6 10 16 7 23
-2 6 -7 8 -11 4z"/>
<path d="M4355 8640 c3 -5 13 -10 21 -10 8 0 12 5 9 10 -3 6 -13 10 -21 10 -8
0 -12 -4 -9 -10z"/>
<path d="M4398 8602 c-40 -3 -42 -8 -32 -60 5 -27 8 -29 20 -17 8 7 14 18 14
23 0 6 7 13 16 16 8 3 13 10 10 15 -4 5 0 11 6 14 22 8 5 12 -34 9z"/>
<path d="M4070 8560 c0 -5 7 -7 15 -4 8 4 15 8 15 10 0 2 -7 4 -15 4 -8 0 -15
-4 -15 -10z"/>
<path d="M4120 8463 c0 -13 5 -23 10 -23 13 0 13 11 0 30 -8 12 -10 11 -10 -7z"/>
<path d="M4350 8420 c0 -5 4 -10 9 -10 6 0 13 5 16 10 3 6 -1 10 -9 10 -9 0
-16 -4 -16 -10z"/>
<path d="M4498 8178 c9 -9 15 -9 24 0 9 9 7 12 -12 12 -19 0 -21 -3 -12 -12z"/>
<path d="M4771 8164 c0 -11 3 -14 6 -6 3 7 2 16 -1 19 -3 4 -6 -2 -5 -13z"/>
<path d="M3901 8034 c0 -11 3 -14 6 -6 3 7 2 16 -1 19 -3 4 -6 -2 -5 -13z"/>
<path d="M3689 8019 c-10 -6 -7 -9 14 -9 29 0 35 5 14 13 -8 3 -20 1 -28 -4z"/>
<path d="M3914 8009 c-3 -6 -2 -14 3 -18 5 -3 12 -13 15 -21 6 -16 51 -20 65
-6 8 8 -46 55 -64 56 -6 0 -15 -5 -19 -11z"/>
<path d="M3040 7735 c0 -8 10 -10 25 -7 29 5 25 15 -5 17 -11 1 -20 -4 -20
-10z"/>
<path d="M3541 4496 c-12 -14 -12 -19 1 -34 9 -9 19 -27 22 -39 7 -22 32 -38
40 -25 10 17 -7 62 -25 62 -12 0 -19 9 -21 27 -3 24 -4 25 -17 9z"/>
<path d="M3727 6626 c4 -8 32 -39 61 -70 57 -60 91 -77 48 -23 -14 17 -36 49
-48 70 -15 26 -29 37 -45 37 -18 0 -22 -4 -16 -14z"/>
<path d="M3860 6475 c0 -14 31 -65 40 -65 5 0 0 16 -11 35 -20 33 -29 42 -29
30z"/>
<path d="M3390 3716 c0 -8 7 -16 15 -20 13 -4 14 -2 5 14 -13 23 -20 26 -20 6z"/>
<path d="M3410 1996 c0 -2 7 -9 15 -16 9 -7 15 -8 15 -2 0 5 -7 12 -15 16 -8
3 -15 4 -15 2z"/>
<path d="M2882 3208 c-26 -32 -26 -108 1 -108 20 0 34 32 33 74 -1 41 -16 56
-34 34z"/>
<path d="M320 9475 c0 -8 4 -15 10 -15 5 0 7 7 4 15 -4 8 -8 15 -10 15 -2 0
-4 -7 -4 -15z"/>
<path d="M60 9340 c0 -35 3 -40 23 -40 13 0 28 5 34 11 6 6 38 15 70 19 55 7
56 7 14 9 -51 1 -121 20 -121 33 0 4 -4 8 -10 8 -5 0 -10 -18 -10 -40z"/>
<path d="M6930 6414 c-17 -27 -20 -38 -11 -47 9 -9 19 -4 41 23 34 41 38 60
11 60 -11 0 -29 -15 -41 -36z"/>
</g>
</svg>
